<svg width="110" height="155" viewBox="0 0 110 155" fill="none" xmlns="http://www.w3.org/2000/svg">
<path d="M54.9329 154.608L10.1672 142.19L0.191162 30.3843H109.809L99.8224 142.173L54.9329 154.608V154.608Z" fill="#264DE4"/>
<path d="M91.2729 135.055L99.8065 39.5258H55V145.103L91.2729 135.055V135.055Z" fill="#2965F1"/>
<path d="M23.0608 80.9933L24.2906 94.7059H54.9999V80.9933H23.0608Z" fill="#EBEBEB"/>
<path d="M20.5894 53.2389L21.8367 66.9514H55V53.2389H20.5894V53.2389Z" fill="#EBEBEB"/>
<path d="M55 116.606L54.9398 116.622L39.6567 112.499L38.6796 101.562H24.9038L26.8262 123.093L54.9368 130.89L55 130.873V116.606Z" fill="#EBEBEB"/>
<path d="M25.9893 0H42.6096V6.94537H32.9399V13.8907H42.6104V20.8357H25.9893V0Z" fill="white"/>
<path d="M45.934 0H62.5548V6.03942H52.8846V7.24722H62.5548V21.138H45.9345V14.7958H55.6046V13.5881H45.9336V0H45.934Z" fill="white"/>
<path d="M65.8794 0H82.5001V6.03942H72.83V7.24722H82.5001V21.138H65.8794V14.7958H75.5495V13.5881H65.8798V0H65.8794Z" fill="white"/>
<path d="M86.8515 80.9933L89.3287 53.2389H54.9528V66.9514H74.2896L73.0409 80.9933H54.9528V94.7059H71.8511L70.2579 112.49L54.9524 116.618V130.884L83.0853 123.093L83.2916 120.776L86.5168 84.6755L86.8515 80.9933V80.9933Z" fill="white"/>
</svg>
