<svg width="72" height="72" viewBox="0 0 72 72" fill="none" xmlns="http://www.w3.org/2000/svg">
<rect width="72" height="72" rx="36" fill="black"/>
<path fill-rule="evenodd" clip-rule="evenodd" d="M36 12C22.74 12 12 22.74 12 36C12 46.62 18.87 55.59 28.41 58.77C29.61 58.98 30.06 58.26 30.06 57.63C30.06 57.06 30.03 55.17 30.03 53.16C24 54.27 22.44 51.69 21.96 50.34C21.69 49.65 20.52 47.52 19.5 46.95C18.66 46.5 17.46 45.39 19.47 45.36C21.36 45.33 22.71 47.1 23.16 47.82C25.32 51.45 28.77 50.43 30.15 49.8C30.36 48.24 30.99 47.19 31.68 46.59C26.34 45.99 20.76 43.92 20.76 34.74C20.76 32.13 21.69 29.97 23.22 28.29C22.98 27.69 22.14 25.23 23.46 21.93C23.46 21.93 25.47 21.3 30.06 24.39C31.98 23.85 34.02 23.58 36.06 23.58C38.1 23.58 40.14 23.85 42.06 24.39C46.65 21.27 48.66 21.93 48.66 21.93C49.98 25.23 49.14 27.69 48.9 28.29C50.43 29.97 51.36 32.1 51.36 34.74C51.36 43.95 45.75 45.99 40.41 46.59C41.28 47.34 42.03 48.78 42.03 51.03C42.03 54.24 42 56.82 42 57.63C42 58.26 42.45 59.01 43.65 58.77C48.4144 57.1616 52.5545 54.0995 55.4875 50.0149C58.4205 45.9302 59.9987 41.0286 60 36C60 22.74 49.26 12 36 12Z" fill="white"/>
</svg>
