<svg width="145" height="146" viewBox="0 0 145 146" fill="none" xmlns="http://www.w3.org/2000/svg">
<path d="M-1 0H145V146H-1V0Z" fill="#F7DF1E"/>
<path d="M37.389 122.008L48.5614 115.246C50.7172 119.068 52.6779 122.302 57.3813 122.302C61.8896 122.302 64.7326 120.538 64.7326 113.679V67.0283H78.4526V113.873C78.4526 128.083 70.1227 134.552 57.9693 134.552C46.9936 134.552 40.6227 128.867 37.3884 122.007" fill="black"/>
<path d="M85.9049 120.538L97.0761 114.07C100.017 118.872 103.839 122.4 110.601 122.4C116.287 122.4 119.911 119.558 119.911 115.638C119.911 110.934 116.187 109.267 109.915 106.524L106.486 105.053C96.5868 100.84 90.0208 95.5473 90.0208 84.3748C90.0208 74.0841 97.8609 66.2435 110.112 66.2435C118.834 66.2435 125.106 69.2821 129.614 77.2203L118.931 84.0811C116.579 79.8671 114.032 78.2012 110.111 78.2012C106.093 78.2012 103.545 80.7494 103.545 84.0811C103.545 88.1971 106.093 89.8641 111.973 92.4122L115.403 93.882C127.065 98.8807 133.631 103.976 133.631 115.442C133.631 127.792 123.929 134.553 110.895 134.553C98.1546 134.553 89.9221 128.477 85.9043 120.538" fill="black"/>
</svg>
