<svg width="114" height="114" viewBox="0 0 114 114" fill="none" xmlns="http://www.w3.org/2000/svg">
<path d="M96.5044 56.2376C96.5044 53.7754 95.5263 51.414 93.7852 49.6729C92.0442 47.9318 89.6828 46.9537 87.2206 46.9537C86.8945 46.9534 86.5687 46.97 86.2444 47.0036L98.9982 9.39072H44.8019L57.5378 46.9715C57.3526 46.9715 57.1637 46.9537 56.9749 46.9537C54.7579 46.9512 52.6132 47.7421 50.9287 49.1834C49.2441 50.6247 48.131 52.6213 47.7905 54.812C47.4501 57.0027 47.9049 59.2429 49.0725 61.1274C50.2402 63.012 52.0438 64.4165 54.157 65.0869C52.1821 68.4871 49.7232 71.5821 46.8574 74.2745C43.127 77.8407 38.6951 80.5911 33.8436 82.3507C31.1255 81.0625 28.9996 78.7879 27.8979 75.989C26.7962 73.1901 26.8012 70.0767 27.9121 67.2813C28.1864 66.6401 28.4642 65.9917 28.7279 65.3433C30.7979 64.8559 32.6379 63.6727 33.9404 61.9917C35.2429 60.3106 35.9291 58.2335 35.8842 56.1073C35.8394 53.9812 35.0662 51.9348 33.6939 50.3102C32.3217 48.6856 30.4334 47.5811 28.3447 47.1814C26.256 46.7816 24.0933 47.1108 22.2181 48.1139C20.3429 49.117 18.8688 50.7332 18.042 52.6925C17.2153 54.6519 17.0859 56.8356 17.6757 58.8788C18.2655 60.922 19.5385 62.701 21.2822 63.9184C18.3188 69.2916 16.0572 75.023 14.5527 80.972C13.2916 88.578 14.5527 96.647 21.1255 101.211C36.4442 111.83 53.0776 94.6271 70.6122 90.3058C76.9677 88.7383 83.9431 88.9912 89.5397 85.7494C91.5617 84.5977 93.3054 83.0151 94.647 81.1139C95.9886 79.2126 96.8952 77.0394 97.3024 74.7484C97.6748 72.5653 97.6047 70.3296 97.0961 68.1742C96.5875 66.0188 95.651 63.9876 94.342 62.2012C95.7386 60.5322 96.5029 58.4246 96.5009 56.2483L96.5044 56.2376ZM66.2624 56.2875V56.2554C66.265 54.6578 65.8544 53.0866 65.0703 51.6945C64.2863 50.3025 63.1555 49.1369 61.7879 48.311L71.9196 27.7875L82.0727 48.4999C80.799 49.3463 79.7547 50.4949 79.033 51.8432C78.3112 53.1915 77.9346 54.6976 77.9367 56.2269V56.43L66.2624 56.2875Z" fill="#C63D14"/>
<path d="M98.7738 56.2376C98.7702 53.5457 97.8279 50.9394 96.1092 48.8676C94.3904 46.7958 92.003 45.3882 89.3581 44.8875L102.162 7.125H41.642L54.4669 44.9623C52.228 45.4628 50.1889 46.6189 48.6098 48.2832C47.0307 49.9475 45.9832 52.0444 45.6009 54.3066C45.2187 56.5687 45.519 58.8935 46.4636 60.9842C47.4082 63.0749 48.9542 64.8369 50.9044 66.0452C49.2934 68.4386 47.4197 70.6445 45.3185 72.6216C42.0658 75.7335 38.2435 78.189 34.061 79.8534C32.0981 78.714 30.6102 76.907 29.8686 74.762C29.127 72.617 29.1811 70.2769 30.0211 68.1684L30.1636 67.8371L30.4272 67.2137C32.8016 66.3905 34.843 64.816 36.2424 62.7287C37.6418 60.6414 38.3229 58.1549 38.1827 55.6459C38.0424 53.1368 37.0883 50.7417 35.465 48.8234C33.8416 46.9051 31.6374 45.568 29.186 45.0147C26.7347 44.4613 24.1698 44.7217 21.8798 45.7566C19.5898 46.7915 17.6993 48.5444 16.4947 50.7498C15.2901 52.9553 14.837 55.4933 15.204 57.9793C15.571 60.4654 16.738 62.7642 18.5285 64.5276C18.1437 65.3505 17.7376 66.1841 17.3208 67.0427C15.011 71.2896 13.3309 75.8498 12.3333 80.5802C10.6767 90.5552 13.3486 98.5459 19.8537 103.052C23.3458 105.55 27.5342 106.887 31.8273 106.875C39.4225 106.875 47.1068 103.06 54.6273 99.3261C59.8817 96.4684 65.4253 94.1779 71.1644 92.4932C73.2199 91.9873 75.3361 91.6809 77.5769 91.3568C82.142 90.992 86.5936 89.7485 90.6869 87.6945C92.9952 86.3759 94.9854 84.566 96.5165 82.3928C98.0476 80.2196 99.0821 77.7363 99.5468 75.1189C100.304 70.672 99.4296 66.1013 97.0851 62.2476C98.1941 60.438 98.7799 58.3564 98.7773 56.2341L98.7738 56.2376ZM94.2387 56.2376C94.2387 57.6257 93.8271 58.9826 93.0559 60.1367C92.2848 61.2908 91.1887 62.1903 89.9063 62.7215C88.6239 63.2527 87.2128 63.3917 85.8514 63.1209C84.49 62.8501 83.2395 62.1817 82.258 61.2002C81.2765 60.2187 80.6081 58.9682 80.3373 57.6068C80.0665 56.2454 80.2055 54.8343 80.7367 53.5519C81.2679 52.2695 82.1674 51.1734 83.3215 50.4023C84.4756 49.6311 85.8325 49.2195 87.2206 49.2195C89.0813 49.2214 90.8653 49.9614 92.1811 51.2771C93.4968 52.5929 94.2368 54.3769 94.2387 56.2376ZM95.8311 11.6601L84.5238 45.0051C84.0395 45.1222 83.5635 45.271 83.0988 45.4504L71.9303 22.6504L60.7263 45.315C60.2385 45.146 59.7398 45.0103 59.2336 44.9089L47.9654 11.6601H95.8311ZM56.975 49.2195C58.363 49.2195 59.7199 49.6311 60.874 50.4023C62.0281 51.1734 62.9277 52.2695 63.4589 53.5519C63.99 54.8343 64.129 56.2454 63.8582 57.6068C63.5874 58.9682 62.919 60.2187 61.9375 61.2002C60.956 62.1817 59.7055 62.8501 58.3441 63.1209C56.9827 63.3917 55.5716 63.2527 54.2892 62.7215C53.0068 62.1903 51.9108 61.2908 51.1396 60.1367C50.3684 58.9826 49.9568 57.6257 49.9568 56.2376C49.9587 54.3769 50.6987 52.5929 52.0145 51.2771C53.3302 49.9614 55.1142 49.2214 56.975 49.2195ZM26.6153 49.2872C28.004 49.2879 29.3612 49.7006 30.5153 50.4729C31.6693 51.2453 32.5683 52.3427 33.0984 53.6262C33.6285 54.9097 33.7659 56.3216 33.4933 57.6832C33.2206 59.0449 32.5502 60.295 31.5667 61.2754C30.5833 62.2559 29.3311 62.9225 27.9687 63.191C26.6062 63.4595 25.1947 63.3178 23.9129 62.7837C22.631 62.2497 21.5364 61.3474 20.7675 60.191C19.9986 59.0346 19.5901 57.6762 19.5936 56.2875C19.5955 54.4268 20.3355 52.6428 21.6513 51.327C22.967 50.0113 24.751 49.2713 26.6118 49.2694L26.6153 49.2872ZM95.0759 74.3458C94.7237 76.3096 93.9442 78.1719 92.7923 79.8008C91.6404 81.4298 90.1445 82.7856 88.4104 83.7722C84.8126 85.5191 80.9168 86.5695 76.9285 86.868C74.677 87.1922 72.3507 87.5271 70.0743 88.0899C64.0142 89.8447 58.1615 92.2491 52.618 95.2612C41.3463 100.858 31.5993 105.692 22.4365 99.3332C15.7141 94.6734 16.024 86.0522 16.8078 81.3283C17.7301 77.0294 19.2683 72.8862 21.3749 69.027L22.3368 67.0356C23.2937 67.4181 24.2979 67.6698 25.3221 67.7837C24.4154 70.9863 24.6688 74.4062 26.0375 77.4402C27.4062 80.4742 29.8024 82.9274 32.8034 84.3671L33.6762 84.816L34.5989 84.4883C39.7456 82.6306 44.4476 79.7184 48.4036 75.9382C51.0167 73.4801 53.3122 70.7047 55.2365 67.6768C57.6986 68.0513 60.2158 67.6197 62.4125 66.4463C64.6092 65.273 66.3677 63.4208 67.4255 61.1661C68.4833 58.9115 68.7837 56.3753 68.282 53.9359C67.7802 51.4965 66.5032 49.2848 64.6415 47.6306L71.9018 32.9496L79.237 47.9121C77.15 49.9234 75.8961 52.6464 75.7245 55.5398C75.5528 58.4332 76.4761 61.2852 78.3108 63.5292C80.1454 65.7731 82.7571 67.2447 85.627 67.6514C88.4968 68.0582 91.4146 67.3703 93.8005 65.7246C95.1235 68.3947 95.5662 71.4154 95.0652 74.3529L95.0759 74.3458Z" fill="white"/>
</svg>
