<svg width="72" height="72" viewBox="0 0 72 72" fill="none" xmlns="http://www.w3.org/2000/svg">
<rect width="72" height="72" rx="36" fill="black"/>
<path d="M60 15.5294V56.4706C60 57.4066 59.6282 58.3044 58.9663 58.9663C58.3044 59.6282 57.4066 60 56.4706 60H15.5294C14.5934 60 13.6956 59.6282 13.0337 58.9663C12.3718 58.3044 12 57.4066 12 56.4706V15.5294C12 14.5934 12.3718 13.6956 13.0337 13.0337C13.6956 12.3718 14.5934 12 15.5294 12H56.4706C57.4066 12 58.3044 12.3718 58.9663 13.0337C59.6282 13.6956 60 14.5934 60 15.5294ZM26.1176 30.3529H19.0588V52.9412H26.1176V30.3529ZM26.7529 22.5882C26.7567 22.0543 26.6552 21.5248 26.4543 21.0301C26.2534 20.5354 25.957 20.0851 25.5821 19.7049C25.2071 19.3247 24.761 19.0221 24.2691 18.8144C23.7772 18.6066 23.2492 18.4978 22.7153 18.4941H22.5882C21.5024 18.4941 20.4611 18.9255 19.6933 19.6933C18.9255 20.4611 18.4941 21.5024 18.4941 22.5882C18.4941 23.6741 18.9255 24.7154 19.6933 25.4832C20.4611 26.251 21.5024 26.6824 22.5882 26.6824C23.1222 26.6955 23.6536 26.6033 24.1519 26.411C24.6502 26.2187 25.1058 25.9301 25.4925 25.5617C25.8793 25.1933 26.1897 24.7523 26.4059 24.2639C26.6222 23.7755 26.7401 23.2493 26.7529 22.7153V22.5882ZM52.9412 39.2188C52.9412 32.4282 48.6212 29.7882 44.3294 29.7882C42.9242 29.7179 41.5251 30.0172 40.2717 30.6563C39.0182 31.2954 37.9543 32.252 37.1859 33.4306H36.9882V30.3529H30.3529V52.9412H37.4118V40.9271C37.3097 39.6966 37.6973 38.4756 38.4903 37.5293C39.2833 36.5829 40.4177 35.9877 41.6471 35.8729H41.9153C44.16 35.8729 45.8259 37.2847 45.8259 40.8424V52.9412H52.8847L52.9412 39.2188Z" fill="white"/>
</svg>
