<svg width="72" height="72" viewBox="0 0 72 72" fill="none" xmlns="http://www.w3.org/2000/svg">
<rect width="72" height="72" rx="36" fill="black"/>
<path fill-rule="evenodd" clip-rule="evenodd" d="M47.3132 13.5001L24.6405 13.5C16.7166 13.5 11 19.9038 11 28.1474V43.8526C11 52.0962 16.7166 58.5 24.6405 58.5H47.2921C51.0981 58.4574 54.7005 56.8552 57.2814 54.0664C59.8624 51.2776 61.1965 47.5457 60.9732 43.7399L60.9765 28.1474C61.1965 24.4543 59.8624 20.7224 57.2814 17.9336C54.7005 15.1448 51.0981 13.5426 47.3132 13.5001ZM24.6405 17.3211L47.2709 17.321C50.0182 17.3518 52.6331 18.5148 54.5065 20.5391C56.3799 22.5633 57.3483 25.2722 57.1862 28.0347L57.1829 43.8526C57.3483 46.7278 56.3799 49.4367 54.5065 51.4609C52.6331 53.4852 50.0182 54.6482 47.2709 54.6791L24.6405 54.6789C18.907 54.6789 14.7936 50.0711 14.7936 43.8526V28.1474C14.7936 21.9289 18.907 17.3211 24.6405 17.3211ZM51.0601 27.5959C50.4055 26.7722 49.2118 26.6389 48.3939 27.2983L38.1457 35.5606L37.852 35.767C36.6437 36.5239 35.057 36.454 33.8995 35.5453L23.5764 27.2933L23.3441 27.134C22.5434 26.6682 21.5035 26.8508 20.9115 27.6021C20.2603 28.4287 20.3976 29.6304 21.2182 30.2863L31.5543 38.5487L31.9576 38.8438C34.5577 40.6147 38.0034 40.5168 40.4971 38.5591L50.7646 30.2814L50.9705 30.0888C51.6 29.4065 51.6552 28.3448 51.0601 27.5959Z" fill="white"/>
</svg>
